<?xml version="1.0" encoding="UTF-8" standalone="no"?>
<!-- Created with Inkscape (http://www.inkscape.org/) -->

<svg
   xmlns:dc="http://purl.org/dc/elements/1.1/"
   xmlns:cc="http://creativecommons.org/ns#"
   xmlns:rdf="http://www.w3.org/1999/02/22-rdf-syntax-ns#"
   xmlns:svg="http://www.w3.org/2000/svg"
   xmlns="http://www.w3.org/2000/svg"
   xmlns:xlink="http://www.w3.org/1999/xlink"
   xmlns:sodipodi="http://sodipodi.sourceforge.net/DTD/sodipodi-0.dtd"
   xmlns:inkscape="http://www.inkscape.org/namespaces/inkscape"
   width="787.16272"
   height="345.625"
   viewBox="0 0 787.16272 345.625"
   version="1.1"
   id="SVGRoot"
   inkscape:version="0.92.2 2405546, 2018-03-11"
   sodipodi:docname="mupb.svg">
  <sodipodi:namedview
     id="base"
     pagecolor="#ffffff"
     bordercolor="#666666"
     borderopacity="1.0"
     inkscape:pageopacity="0.0"
     inkscape:pageshadow="2"
     inkscape:zoom="0.64"
     inkscape:cx="393.58137"
     inkscape:cy="172.8125"
     inkscape:document-units="px"
     inkscape:current-layer="layer1"
     showgrid="false"
     inkscape:window-width="1600"
     inkscape:window-height="856"
     inkscape:window-x="0"
     inkscape:window-y="44"
     inkscape:window-maximized="1" />
  <defs
     id="defs5469">
    <linearGradient
       inkscape:collect="always"
       xlink:href="#linearGradient4920"
       id="linearGradient4924"
       x1="7.5642304"
       y1="329.53394"
       x2="792.66534"
       y2="329.53394"
       gradientUnits="userSpaceOnUse"
       gradientTransform="translate(0.68000326,82.377227)" />
    <linearGradient
       inkscape:collect="always"
       id="linearGradient4920">
      <stop
         style="stop-color:#000000;stop-opacity:1;"
         offset="0"
         id="stop4916" />
      <stop
         style="stop-color:#000000;stop-opacity:0;"
         offset="1"
         id="stop4918" />
    </linearGradient>
  </defs>
  <metadata
     id="metadata5472">
    <rdf:RDF>
      <cc:Work
         rdf:about="">
        <dc:format>image/svg+xml</dc:format>
        <dc:type
           rdf:resource="http://purl.org/dc/dcmitype/StillImage" />
        <dc:title></dc:title>
      </cc:Work>
    </rdf:RDF>
  </metadata>
  <g
     id="layer1"
     inkscape:groupmode="layer"
     inkscape:label="Layer 1"
     transform="translate(-6.4186318,-227.1875)">
    <path
       style="fill:none;stroke:url(#linearGradient4924);stroke-width:2.5;stroke-linecap:butt;stroke-linejoin:miter;stroke-miterlimit:4;stroke-dasharray:none;stroke-opacity:1"
       d="M 8.4326233,553.52937 793.15699,270.29293 Z"
       id="path4868"
       inkscape:connector-curvature="0" />
    <g
       aria-label="message{}"
       transform="translate(0.68000326,-11.622783)"
       style="font-style:normal;font-variant:normal;font-weight:300;font-stretch:normal;font-size:40px;line-height:1.25;font-family:'KoHo Light';-inkscape-font-specification:'KoHo Light, Light';font-variant-ligatures:normal;font-variant-caps:normal;font-variant-numeric:normal;font-feature-settings:normal;text-align:start;letter-spacing:0px;word-spacing:0px;writing-mode:lr-tb;text-anchor:start;fill:#000000;fill-opacity:1;stroke:none"
       id="text4872">
      <path
         inkscape:connector-curvature="0"
         d="m 26.151014,529.81096 q 2.332703,-0.84196 4.271116,0.287 1.976037,1.11538 2.967377,3.86195 l 4.37276,12.11501 -1.843588,0.66542 -4.23696,-11.73876 q -0.84196,-2.33271 -2.26833,-3.22123 -1.43995,-0.92614 -3.20829,-0.28788 -2.182206,0.78764 -3.185832,3.19112 -0.966003,2.38991 -0.406342,5.58996 l 3.5987,9.97043 -1.843588,0.66542 -4.23696,-11.73876 q -0.84196,-2.33271 -2.26833,-3.22123 -1.402326,-0.93972 -3.20829,-0.28788 -2.182206,0.78764 -3.185833,3.19112 -0.966002,2.3899 -0.406342,5.58996 l 3.5987,9.97043 -1.805963,0.65184 -5.4727402,-15.16257 q -0.2037,-0.56436 -0.5652455,-0.85913 -0.3239212,-0.30834 -1.0784048,-0.63138 L 6.51116,536.89972 q 1.0554776,0.2144 1.67616,0.75583 0.6206824,0.54144 1.0145024,1.63254 l 0.62468,1.73072 q 0.088182,-2.58338 1.3090886,-4.38487 1.244951,-1.8527 3.464781,-2.65392 2.106958,-0.76048 3.899106,0.0811 1.792149,0.84155 2.873434,3.13039 -0.06543,-2.6555 1.189984,-4.59703 1.255415,-1.94153 3.588118,-2.78349 z"
         id="path5442" />
      <path
         inkscape:connector-curvature="0"
         d="m 50.338171,540.26003 q 3.423806,-1.23578 4.705499,-4.16489 l 1.560171,0.67013 q -0.691051,1.73783 -2.102078,3.01258 -1.424606,1.23713 -3.682061,2.05193 -3.687176,1.33084 -6.227576,0.41916 -2.516357,-0.96288 -3.643497,-4.0857 l -2.1049,-5.83175 q -1.04566,-2.89707 0.275657,-5.24512 1.307736,-2.38567 4.656294,-3.59429 3.536678,-1.27652 6.004946,-0.21122 2.505892,1.05171 3.673772,4.2874 0.70616,1.95646 0.187651,2.99412 -0.494464,0.98646 -2.563798,1.73336 l -9.029818,3.2592 0.70616,1.95646 q 0.8827,2.44558 2.746981,3.13351 1.864281,0.68794 4.836597,-0.38488 z M 44.3053,524.95943 q -2.4832,0.89628 -3.475246,2.74275 -0.954421,1.83288 -0.153201,4.05271 l 0.86912,2.40796 8.503079,-3.06908 q 1.316848,-0.4753 1.643003,-1.10334 0.312576,-0.66565 -0.135564,-1.90725 -0.8827,-2.44558 -2.787722,-3.24638 -1.867397,-0.81439 -4.463469,0.12263 z"
         id="path5444" />
      <path
         inkscape:connector-curvature="0"
         d="m 68.377878,535.49234 q -2.182206,0.78764 -3.98282,0.62956 -1.800614,-0.15808 -3.523746,-1.2797 l 0.823736,-1.48804 q 1.668812,0.97112 3.001239,1.12808 1.356472,0.10576 3.124811,-0.5325 2.445576,-0.8827 3.39888,-2.2474 0.990928,-1.37828 0.379828,-3.07137 -0.38024,-1.05348 -1.137839,-1.50297 -0.719975,-0.46308 -2.124535,-0.46643 -1.366936,-0.0169 -3.811395,0.39759 -2.847861,0.47506 -4.599269,-0.25361 -1.713785,-0.74226 -2.460685,-2.81159 -0.80122,-2.21983 0.378947,-4.1342 1.217791,-1.92795 4.001985,-2.93287 2.182206,-0.78764 3.98282,-0.62956 1.838238,0.1445 3.168431,1.23784 l -0.837315,1.45041 q -2.497427,-1.73518 -5.770736,-0.55372 -1.956461,0.70616 -2.820936,2.08132 -0.878056,1.33755 -0.334856,2.84252 0.50246,1.39209 1.76587,1.82912 1.301035,0.42345 3.834322,0.0194 3.945196,-0.61598 5.833521,0.0208 1.92595,0.62316 2.71359,2.80536 0.86912,2.40795 -0.42392,4.36306 -1.268995,1.90391 -4.579928,3.09895 z"
         id="path5446" />
      <path
         inkscape:connector-curvature="0"
         d="m 85.205908,529.41848 q -2.182207,0.78764 -3.98282,0.62956 -1.800614,-0.15808 -3.523746,-1.27969 l 0.823736,-1.48804 q 1.668811,0.97112 3.001239,1.12808 1.356471,0.10576 3.124811,-0.5325 2.445575,-0.8827 3.39888,-2.2474 0.990928,-1.37828 0.379828,-3.07137 -0.38024,-1.05348 -1.137839,-1.50298 -0.719976,-0.46307 -2.124536,-0.46642 -1.366935,-0.0169 -3.811394,0.39758 -2.847861,0.47507 -4.59927,-0.25361 -1.713784,-0.74225 -2.460684,-2.81159 -0.80122,-2.21983 0.378947,-4.13419 1.217791,-1.92795 4.001985,-2.93287 2.182206,-0.78764 3.98282,-0.62956 1.838238,0.1445 3.168431,1.23783 l -0.837316,1.45042 q -2.497426,-1.73518 -5.770735,-0.55372 -1.956461,0.70616 -2.820937,2.08132 -0.878056,1.33754 -0.334856,2.84251 0.50246,1.3921 1.765871,1.82913 1.301034,0.42345 3.834322,0.0194 3.945195,-0.61598 5.833521,0.0208 1.925949,0.62315 2.713589,2.80536 0.86912,2.40795 -0.423919,4.36306 -1.268995,1.9039 -4.579928,3.09894 z"
         id="path5448" />
      <path
         inkscape:connector-curvature="0"
         d="m 108.91394,517.50181 q 0.21728,0.60199 0.5412,0.91033 0.32392,0.30835 1.10245,0.58018 l -0.8342,1.57687 q -1.05548,-0.2144 -1.63853,-0.76942 -0.58306,-0.55501 -1.00404,-1.72136 l -0.0543,-0.1505 q -0.42145,1.89567 -1.89103,3.36167 -1.46958,1.46599 -3.83991,2.32153 -2.784193,1.00492 -4.802087,0.24485 -1.99385,-0.81127 -2.87655,-3.25685 -1.6975,-4.70303 4.443717,-7.60004 l 3.08942,-1.45529 q 1.73806,-0.83996 2.25234,-1.53589 0.51428,-0.69593 0.12046,-1.78704 -0.70616,-1.95646 -2.49208,-2.5451 -1.799497,-0.62627 -4.207448,0.24285 -2.069333,0.7469 -3.144858,1.77299 -1.05148,0.97488 -1.492741,2.58002 l -1.632305,-0.51651 q 0.712216,-3.4465 5.753864,-5.26622 3.310933,-1.19504 5.711298,-0.31786 2.38679,0.83955 3.37813,3.58612 z m -7.91179,4.47165 q 2.97232,-1.07282 4.24866,-3.19201 1.31397,-2.13277 0.43127,-4.57834 l -1.19504,-3.31093 q -0.65854,1.00315 -3.02264,2.1116 l -2.702714,1.23066 q -2.364096,1.10845 -3.201412,2.55886 -0.837315,1.45042 -0.212635,3.18113 0.62468,1.73072 2.092907,2.26392 1.454647,0.49559 3.561604,-0.26489 z"
         id="path5450" />
      <path
         inkscape:connector-curvature="0"
         d="m 125.20442,495.2921 q -0.37425,0.73044 -0.46419,1.18816 -0.0523,0.44414 0.15138,1.00851 l 6.0431,16.74278 q 1.05924,2.9347 0.0598,4.99645 -0.99939,2.06174 -4.04695,3.16172 l -4.40204,1.58886 -0.52962,-1.46734 4.40204,-1.58886 q 2.10695,-0.76048 2.77708,-2.32065 0.70774,-1.57375 -0.0799,-3.75596 l -1.68392,-4.66541 q -0.35978,1.83089 -1.64124,3.22899 -1.25741,1.34689 -3.25149,2.06663 -3.53668,1.27652 -6.4856,-0.29571 -2.9625,-1.60984 -4.3884,-5.56039 l -0.28518,-0.79011 q -0.93702,-2.59607 -0.70257,-4.89203 0.27207,-2.30954 1.62254,-3.9877 1.37452,-1.72936 3.70723,-2.57132 1.99408,-0.71974 3.87306,-0.46237 1.8654,0.21975 3.40041,1.40926 l -0.14938,-0.41386 q -0.36666,-1.01586 -0.28295,-1.72649 0.0837,-0.71062 0.79658,-1.56328 z m -3.05862,18.62459 q 2.37033,-0.85554 3.36861,-2.44911 0.99827,-1.59356 0.95265,-3.95854 l -2.34934,-6.50899 q -1.47534,-1.84894 -3.26125,-2.43758 -1.78592,-0.58864 -4.15625,0.2669 -2.74657,0.99134 -3.7335,3.5589 -0.94931,2.55398 0.21857,5.78966 l 0.28518,0.79011 q 1.16788,3.23569 3.52951,4.59463 2.39925,1.34536 5.14582,0.35402 z"
         id="path5452" />
      <path
         inkscape:connector-curvature="0"
         d="m 142.92908,506.84047 q 3.4238,-1.23578 4.7055,-4.16488 l 1.56017,0.67012 q -0.69105,1.73783 -2.10208,3.01259 -1.42461,1.23713 -3.68206,2.05193 -3.68718,1.33084 -6.22758,0.41916 -2.51635,-0.96289 -3.64349,-4.0857 l -2.1049,-5.83176 q -1.04566,-2.89707 0.27565,-5.24511 1.30774,-2.38567 4.6563,-3.59429 3.53668,-1.27652 6.00494,-0.21123 2.5059,1.05172 3.67378,4.2874 0.70616,1.95646 0.18765,2.99413 -0.49447,0.98646 -2.5638,1.73336 l -9.02982,3.2592 0.70616,1.95646 q 0.8827,2.44557 2.74698,3.13351 1.86428,0.68793 4.8366,-0.38489 z m -6.03287,-15.3006 q -2.4832,0.89628 -3.47525,2.74275 -0.95442,1.83289 -0.1532,4.05272 l 0.86912,2.40795 8.50308,-3.06908 q 1.31685,-0.4753 1.643,-1.10333 0.31258,-0.66566 -0.13556,-1.90726 -0.8827,-2.44557 -2.78772,-3.24638 -1.8674,-0.81439 -4.46347,0.12263 z"
         id="path5454" />
      <path
         inkscape:connector-curvature="0"
         d="m 162.50849,505.8122 q -2.29508,0.82838 -3.67759,0.17918 -1.36894,-0.61157 -2.18374,-2.86902 l -2.87896,-7.97634 q -0.52962,-1.46735 -1.6728,-2.1604 -1.15677,-0.73067 -3.13193,-0.78323 1.4727,-1.33954 1.90973,-2.60295 0.43702,-1.26341 -0.0926,-2.73075 l -2.87896,-7.97634 q -0.8148,-2.25746 -0.15202,-3.60235 0.64919,-1.38251 2.94427,-2.21089 l 1.12873,-0.4074 0.52962,1.46734 -1.12873,0.4074 q -1.39209,0.50246 -1.76322,1.35936 -0.33351,0.84331 0.20969,2.34828 l 2.87896,7.97634 q 0.51604,1.42972 0.36643,2.54686 -0.14962,1.11715 -1.05483,2.37944 1.50273,0.39318 2.33135,1.15724 0.82861,0.76407 1.34465,2.19379 l 2.87896,7.97634 q 0.5432,1.50497 1.33843,1.94088 0.83285,0.42233 2.22494,-0.0801 l 1.12873,-0.4074 0.52962,1.46735 z"
         id="path5456" />
      <path
         inkscape:connector-curvature="0"
         d="m 167.03051,502.52152 1.12873,-0.4074 q 1.3921,-0.50246 1.7256,-1.34577 0.37113,-0.85689 -0.17207,-2.36186 l -2.87896,-7.97634 q -0.51604,-1.42972 -0.36642,-2.54687 0.14961,-1.11715 1.05483,-2.37944 -1.50274,-0.39317 -2.33135,-1.15724 -0.82862,-0.76407 -1.34466,-2.19379 l -2.87896,-7.97634 q -0.5432,-1.50497 -1.37605,-1.9273 -0.79522,-0.43591 -2.18732,0.0666 l -1.12873,0.4074 -0.52962,-1.46735 1.12873,-0.4074 q 2.29508,-0.82838 3.6776,-0.17918 1.36893,0.61157 2.18373,2.86902 l 2.87896,7.97634 q 0.52962,1.46735 1.67281,2.1604 1.14319,0.69305 3.13192,0.78323 -1.48627,1.30192 -1.90972,2.60295 -0.43703,1.26341 0.0926,2.73076 l 2.87896,7.97634 q 0.8148,2.25745 0.15203,3.60234 -0.6492,1.38252 -2.94428,2.2109 l -1.12873,0.4074 z"
         id="path5458" />
    </g>
    <g
       aria-label="1011010"
       transform="translate(-5.3199967,-5.6227826)"
       style="font-style:normal;font-variant:normal;font-weight:300;font-stretch:normal;font-size:40px;line-height:1.25;font-family:'KoHo Light';-inkscape-font-specification:'KoHo Light, Light';font-variant-ligatures:normal;font-variant-caps:normal;font-variant-numeric:normal;font-feature-settings:normal;text-align:start;letter-spacing:0px;word-spacing:0px;writing-mode:lr-tb;text-anchor:start;fill:#000000;fill-opacity:1;stroke:none"
       id="text4884">
      <path
         inkscape:connector-curvature="0"
         d="m 668.87598,288.51425 9.506,26.33697 -1.88121,0.679 -8.827,-24.45576 -4.52073,5.50155 -0.65184,-1.80597 4.71931,-5.65827 z"
         id="path5420" />
      <path
         inkscape:connector-curvature="0"
         d="m 693.95728,309.69729 q -4.17629,1.50738 -7.23073,-0.23939 -3.06802,-1.78439 -4.83342,-6.67554 l -2.63452,-7.2991 q -1.7654,-4.89115 -0.5171,-8.14841 1.23472,-3.29489 5.41101,-4.80227 4.13867,-1.4938 7.19311,0.25297 3.09206,1.73318 4.84388,6.58671 l 2.63452,7.2991 q 1.7654,4.89115 0.54426,8.22366 -1.23472,3.29489 -5.41101,4.80227 z m -0.57036,-1.58022 q 3.27331,-1.18146 4.1683,-3.88594 0.91903,-2.75568 -0.57477,-6.89435 l -2.63452,-7.2991 q -1.4938,-4.13867 -3.94737,-5.63453 -2.41595,-1.50943 -5.68926,-0.32797 -3.27331,1.18146 -4.20592,3.89951 -0.89499,2.70448 0.59881,6.84315 l 2.63452,7.2991 q 1.4938,4.13867 3.92333,5.68573 2.45357,1.49586 5.72688,0.3144 z"
         id="path5422" />
      <path
         inkscape:connector-curvature="0"
         d="m 705.03052,275.46472 9.506,26.33697 -1.88121,0.679 -8.827,-24.45576 -4.52073,5.50155 -0.65184,-1.80597 4.71932,-5.65827 z"
         id="path5424" />
      <path
         inkscape:connector-curvature="0"
         d="m 718.40473,270.63745 9.506,26.33697 -1.88121,0.679 -8.827,-24.45576 -4.52073,5.50155 -0.65184,-1.80597 4.71931,-5.65827 z"
         id="path5426" />
      <path
         inkscape:connector-curvature="0"
         d="m 743.48609,291.82049 q -4.17629,1.50738 -7.23073,-0.23939 -3.06803,-1.78439 -4.83343,-6.67554 l -2.63452,-7.2991 q -1.7654,-4.89115 -0.51709,-8.14841 1.23472,-3.29489 5.41101,-4.80227 4.13866,-1.4938 7.19311,0.25297 3.09206,1.73318 4.84388,6.58671 l 2.63452,7.2991 q 1.7654,4.89115 0.54426,8.22366 -1.23472,3.29489 -5.41101,4.80227 z m -0.57036,-1.58022 q 3.27331,-1.18146 4.16829,-3.88594 0.91903,-2.75568 -0.57477,-6.89435 l -2.63452,-7.2991 q -1.4938,-4.13867 -3.94737,-5.63453 -2.41594,-1.50943 -5.68925,-0.32797 -3.27331,1.18146 -4.20592,3.89951 -0.89499,2.70448 0.59881,6.84315 l 2.63452,7.2991 q 1.4938,4.13867 3.92333,5.68573 2.45357,1.49586 5.72688,0.3144 z"
         id="path5428" />
      <path
         inkscape:connector-curvature="0"
         d="m 754.55927,257.58792 9.506,26.33697 -1.88121,0.679 -8.827,-24.45576 -4.52073,5.50155 -0.65184,-1.80597 4.71931,-5.65827 z"
         id="path5430" />
      <path
         inkscape:connector-curvature="0"
         d="m 779.64063,278.77096 q -4.17629,1.50738 -7.23073,-0.23939 -3.06803,-1.78439 -4.83343,-6.67554 l -2.63452,-7.2991 q -1.7654,-4.89115 -0.51709,-8.14841 1.23472,-3.29489 5.41101,-4.80227 4.13867,-1.4938 7.19311,0.25297 3.09206,1.73318 4.84388,6.58671 l 2.63452,7.2991 q 1.7654,4.89115 0.54426,8.22366 -1.23472,3.29489 -5.41101,4.80227 z m -0.57036,-1.58022 q 3.27331,-1.18146 4.16829,-3.88594 0.91904,-2.75568 -0.57476,-6.89435 l -2.63452,-7.2991 q -1.4938,-4.13867 -3.94738,-5.63453 -2.41594,-1.50943 -5.68925,-0.32797 -3.27331,1.18146 -4.20592,3.89951 -0.89499,2.70448 0.59881,6.84315 l 2.63452,7.2991 q 1.4938,4.13867 3.92333,5.68573 2.45357,1.49586 5.72688,0.3144 z"
         id="path5432" />
    </g>
    <path
       style="fill:#ffffff;fill-opacity:1;stroke:#000000;stroke-width:5;stroke-linejoin:miter;stroke-miterlimit:9.39999962;stroke-dasharray:none;stroke-opacity:1"
       d="m 231.25,229.6875 v 340.625 h 337.5 v -340.625 z"
       id="rect3750"
       inkscape:connector-curvature="0" />
    <g
       aria-label="μpb"
       transform="translate(141.42187,54.046875)"
       style="font-style:normal;font-weight:normal;font-size:40px;line-height:1.25;font-family:sans-serif;letter-spacing:0px;word-spacing:0px;fill:#000000;fill-opacity:1;stroke:#000000;stroke-opacity:1"
       id="flowRoot34">
      <path
         inkscape:connector-curvature="0"
         d="M 173.78125,392.40625 V 319.9375 h 8.625 v 32.625 q 0,6.79687 3.23437,10.26562 3.23438,3.46875 9.5625,3.46875 6.9375,0 10.40625,-3.9375 3.51563,-3.9375 3.51563,-11.8125 V 319.9375 h 8.625 v 40.40625 q 0,2.8125 0.79687,4.17187 0.84375,1.3125 2.57813,1.3125 0.42187,0 1.17187,-0.23437 0.75,-0.28125 2.0625,-0.84375 v 6.9375 q -1.92187,1.07812 -3.65625,1.59375 -1.6875,0.51562 -3.32812,0.51562 -3.23438,0 -5.15625,-1.82812 -1.92188,-1.82813 -2.625,-5.57813 -2.34375,3.70313 -5.76563,5.57813 -3.375,1.82812 -7.96875,1.82812 -4.78125,0 -8.15625,-1.82812 -3.32812,-1.82813 -5.29687,-5.48438 v 25.92188 z"
         style="font-size:96px;fill:#000000;fill-opacity:1;stroke:#000000;stroke-opacity:1"
         id="path5435" />
      <path
         inkscape:connector-curvature="0"
         d="m 244.14062,364.5625 v 27.84375 h -8.67187 V 319.9375 h 8.67187 v 7.96875 q 2.71875,-4.6875 6.84375,-6.9375 4.17188,-2.29688 9.9375,-2.29688 9.5625,0 15.51563,7.59375 6,7.59375 6,19.96875 0,12.375 -6,19.96875 -5.95313,7.59375 -15.51563,7.59375 -5.76562,0 -9.9375,-2.25 -4.125,-2.29687 -6.84375,-6.98437 z m 29.34375,-18.32813 q 0,-9.51562 -3.9375,-14.90625 -3.89062,-5.4375 -10.73437,-5.4375 -6.84375,0 -10.78125,5.4375 -3.89063,5.39063 -3.89063,14.90625 0,9.51563 3.89063,14.95313 3.9375,5.39062 10.78125,5.39062 6.84375,0 10.73437,-5.39062 3.9375,-5.4375 3.9375,-14.95313 z"
         style="font-size:96px;fill:#000000;fill-opacity:1;stroke:#000000;stroke-opacity:1"
         id="path5437" />
      <path
         inkscape:connector-curvature="0"
         d="m 334.42187,346.23437 q 0,-9.51562 -3.9375,-14.90625 -3.89062,-5.4375 -10.73437,-5.4375 -6.84375,0 -10.78125,5.4375 -3.89063,5.39063 -3.89063,14.90625 0,9.51563 3.89063,14.95313 3.9375,5.39062 10.78125,5.39062 6.84375,0 10.73437,-5.39062 3.9375,-5.4375 3.9375,-14.95313 z m -29.34375,-18.32812 q 2.71875,-4.6875 6.84375,-6.9375 4.17188,-2.29688 9.9375,-2.29688 9.5625,0 15.51563,7.59375 6,7.59375 6,19.96875 0,12.375 -6,19.96875 -5.95313,7.59375 -15.51563,7.59375 -5.76562,0 -9.9375,-2.25 -4.125,-2.29687 -6.84375,-6.98437 v 7.875 h -8.67187 V 299.5 h 8.67187 z"
         style="font-size:96px;fill:#000000;fill-opacity:1;stroke:#000000;stroke-opacity:1"
         id="path5439" />
    </g>
  </g>
</svg>
